<svg xmlns="http://www.w3.org/2000/svg" width="588.649" height="164.283" viewBox="0 0 588.649 164.283">
  <g id="Group_332" data-name="Group 332" transform="translate(-252.635 -430.5)">
    <path id="Path_209" data-name="Path 209" d="M438.465,0V52.086l83.117,29.079L438.465,110.68v53.6l139.541-53.6V52.086Z" transform="translate(97.291 430.5)" fill="#e10092"/>
    <path id="Path_210" data-name="Path 210" d="M376.669,4.037V150.922H484.591V108.433H428.455V4.037Z" transform="translate(25.928 435.161)" fill="#fff"/>
    <path id="Path_211" data-name="Path 211" d="M378.507,4.037H307.075V150.922h49.5V116.656h20.1c42.034,0,62.365-25.586,62.365-58.48,0-33.354-24.444-54.14-60.535-54.14M356.576,76.909V46.524h16.9c10.507,0,16.219,6.169,16.219,14.394,0,10.052-6.624,15.991-17.359,15.991Z" transform="translate(-54.44 435.162)" fill="#fff"/>
    <path id="Path_212" data-name="Path 212" d="M614.566,4.037,585.1,60.232l-27.183-56.2H504.037l52.254,104.4v42.489h55.39v-44.1L668.27,4.037Z" transform="translate(173.014 435.162)" fill="#fff"/>
  </g>
</svg>
